#!OML:ASF H:\Punching\Project 1\Capture day 1\Session 1\female.ASF
:FULLY-SPECIFIED
:DEGREES
2066
root 1.92356 15.1769 10.4533 15.7905 -23.6693 -2.18481
lowerback -0.6802 -4.3196 0.339319
upperback -7.50211 -5.54346 6.16281
thorax -6.88898 -2.60954 6.59268
lowerneck -3.41427 10.4798 13.7964
upperneck 38.6089 17.6119 -12.8364
head 17.3544 7.90501 -5.36367
rclavicle -1.55797e-014 1.90833e-014
rhumerus -20.3074 31.5363 -66.3145
rradius 132.53
rwrist -4.58166
rhand -25.0935 7.60392
rfingers 7.12502
rthumb 1.42123 -22.3711
lclavicle -1.55797e-014 1.90833e-014
lhumerus 57.5285 13.3842 19.8742
lradius 56.9007
lwrist -25.5462
lhand -11.26 2.7518
lfingers 7.12502
lthumb 14.77 32.2055
rfemur 2.76817 6.8052 5.13863
rtibia 6.31035
rfoot -12.8279 -19.7963
rtoes -18.1805
lfemur -42.5852 7.09996 -15.4343
ltibia 44.0473
lfoot -13.1694 9.64955
ltoes 0.644357
2067
root 1.97105 15.1747 10.4923 15.8984 -23.685 -2.21153
lowerback -0.534997 -4.22121 0.235541
upperback -7.43086 -5.41225 6.14267
thorax -6.90223 -2.53771 6.6328
lowerneck -3.54898 10.4465 13.6446
upperneck 38.8751 17.6157 -12.8558
head 17.5287 7.87209 -5.35862
rclavicle 5.28767e-014 4.92986e-014
rhumerus -20.1465 31.3331 -66.6146
rradius 132.338
rwrist -4.33947
rhand -25.1918 7.66683
rfingers 7.12502
rthumb 1.32632 -22.3088
lclavicle 5.28767e-014 4.92986e-014
lhumerus 58.5107 14.7926 21.8657
lradius 55.0411
lwrist -28.6142
lhand -11.1244 1.41212
lfingers 7.12502
lthumb 14.9006 30.8562
rfemur 2.37661 6.76201 5.13565
rtibia 7.01789
rfoot -12.8328 -20.2899
rtoes -17.1112
lfemur -42.749 7.19209 -15.7268
ltibia 44.269
lfoot -13.3883 9.55665
ltoes 0.758253
2068
root 2.0166 15.1741 10.5303 16.011 -23.7222 -2.26455
lowerback -0.419046 -4.12043 0.216162
upperback -7.34417 -5.27735 6.09585
thorax -6.89235 -2.47074 6.59237
lowerneck -3.65096 10.4303 13.5375
upperneck 39.0877 17.6466 -12.9034
head 17.6822 7.85617 -5.36764
rclavicle 6.18966e-014 -5.88403e-014
rhumerus -19.8761 31.2161 -66.9831
rradius 132.138
rwrist -4.09103
rhand -25.2041 7.71383
rfingers 7.12502
rthumb 1.31449 -22.2619
lclavicle 6.18966e-014 -5.88403e-014
lhumerus 59.1815 15.806 23.1547
lradius 53.9865
lwrist -29.2448
lhand -11.1187 0.490724
lfingers 7.12502
lthumb 14.9061 29.9344
rfemur 2.07212 6.74839 5.15442
rtibia 7.5122
rfoot -12.6674 -20.8184
rtoes -15.8567
lfemur -42.8794 7.28139 -15.9746
ltibia 44.4596
lfoot -13.6003 9.49246
ltoes 0.881872
2069
root 2.06019 15.1748 10.5676 16.1307 -23.7819 -2.34464
lowerback -0.335651 -4.00917 0.290918
upperback -7.25348 -5.12749 6.01134
thorax -6.87195 -2.40342 6.45442
lowerneck -3.71851 10.4247 13.4964
upperneck 39.2712 17.6863 -12.9587
head 17.8242 7.85484 -5.38988
rclavicle -1.58282e-014 -3.02153e-014
rhumerus -19.5574 31.1639 -67.4295
rradius 131.943
rwrist -3.81959
rhand -25.156 7.74918
rfingers 7.12502
rthumb 1.36087 -22.2262
lclavicle -1.58282e-014 -3.02153e-014
lhumerus 59.5406 16.3809 23.6677
lradius 53.6305
lwrist -27.5141
lhand -11.2739 0.0406754
lfingers 7.12502
lthumb 14.7566 29.4954
rfemur 1.84099 6.76479 5.18949
rtibia 7.81713
rfoot -12.3771 -21.3576
rtoes -14.504
lfemur -42.9828 7.36952 -16.1763
ltibia 44.6271
lfoot -13.804 9.44952
ltoes 1.01313
2070
root 2.10166 15.1768 10.6044 16.2549 -23.8623 -2.43784
lowerback -0.287954 -3.88265 0.446655
upperback -7.16545 -4.95703 5.88014
thorax -6.8455 -2.33209 6.217
lowerneck -3.74306 10.4097 13.4595
upperneck 39.4264 17.6855 -12.9532
head 17.919 7.8458 -5.39162
rclavicle 5.22307e-014 -2.70347e-014
rhumerus -19.2268 31.1564 -67.9509
rradius 131.753
rwrist -3.5043
rhand -25.0903 7.80205
rfingers 7.12502
rthumb 1.42436 -22.1729
lclavicle 5.22307e-014 -2.70347e-014
lhumerus 59.6501 16.5577 23.5019
lradius 53.8502
lwrist -23.9026
lhand -11.4879 -0.0334573
lfingers 7.12502
lthumb 14.5504 29.4362
rfemur 1.67027 6.80534 5.22358
rtibia 7.95831
rfoot -12.0015 -21.8815
rtoes -13.1779
lfemur -43.0665 7.44994 -16.345
ltibia 44.7787
lfoot -13.9987 9.42887
ltoes 1.14247
